<svg id="line" xmlns="http://www.w3.org/2000/svg" width="64" height="64" viewBox="0 0 64 64"><title>industrial ecology</title><circle cx="38" cy="37.5" r="7" style="fill:#c4a2fc"/><path d="M63,37.5a8.963,8.963,0,0,0-5.247-8.183,9,9,0,0,0-11.571-11.57,9,9,0,0,0-16.364,0,9,9,0,0,0-11.571,11.57,9,9,0,0,0,0,16.365A9,9,0,0,0,29.818,57.253a9,9,0,0,0,16.364,0A9,9,0,0,0,57.753,45.682,8.96,8.96,0,0,0,63,37.5ZM45.778,28.308l4.95-4.95a1,1,0,1,1,1.414,1.414l-4.95,4.95a1,1,0,0,1-1.414-1.414ZM37,18.5a1,1,0,0,1,2,0v7a1,1,0,0,1-2,0ZM23.858,23.358a1,1,0,0,1,1.414,0l4.95,4.95a1,1,0,0,1-1.414,1.414l-4.95-4.95A1,1,0,0,1,23.858,23.358ZM19,38.5a1,1,0,0,1,0-2h8a1,1,0,0,1,0,2Zm11.222,8.192-4.95,4.95a1,1,0,1,1-1.414-1.414l4.95-4.95a1,1,0,0,1,1.414,1.414ZM39,56.5a1,1,0,0,1-2,0v-7a1,1,0,0,1,2,0Zm-1-10a9,9,0,1,1,9-9A9.01,9.01,0,0,1,38,46.5Zm14.142,5.142a1,1,0,0,1-1.414,0l-4.95-4.95a1,1,0,0,1,1.414-1.414l4.95,4.95A1,1,0,0,1,52.142,51.642ZM57,38.5H50a1,1,0,0,1,0-2h7a1,1,0,0,1,0,2Z" style="fill:#c4a2fc"/><path d="M47.553,18.605,37,23.882V19.5a1,1,0,0,0-1.448-.895L25.5,23.632,22.977,12.283A1,1,0,0,0,22,11.5H10a1,1,0,0,0-.977.783l-8,36A1,1,0,0,0,2,49.5H48a1,1,0,0,0,1-1v-29A1,1,0,0,0,47.553,18.605ZM3.248,47.5l7.554-34H21.2l7.554,34ZM35,47.5H30.8L25.946,25.645,35,21.118Zm12,0H37V26.118l10-5Z" style="fill:#151a6a"/><path d="M27,19.5a17.019,17.019,0,0,0,17-17,1,1,0,0,0-1-1,17.018,17.018,0,0,0-17,17A1,1,0,0,0,27,19.5ZM41.965,3.535a15.022,15.022,0,0,1-13.929,13.93A15.022,15.022,0,0,1,41.965,3.535Z" style="fill:#151a6a"/></svg>