<svg id="line" xmlns="http://www.w3.org/2000/svg" width="64" height="64" viewBox="0 0 64 64"><title>ecohouse</title><path d="M19,62a1,1,0,0,0,1,1H56a1,1,0,0,0,0-2H50V50.926C56.7,50.175,62,41.983,62,32c0-10.477-5.832-19-13-19S36,21.523,36,32c0,9.983,5.3,18.175,12,18.926V61H39V50.938a9.489,9.489,0,0,0,2.6-.7C37.068,46.626,34,39.811,34,32s3.068-14.626,7.6-18.243A9.211,9.211,0,0,0,38,13c-7.168,0-13,8.523-13,19,0,9.983,5.3,18.175,12,18.926V61H28V50.938a9.489,9.489,0,0,0,2.6-.7C26.068,46.626,23,39.811,23,32s3.068-14.626,7.6-18.243A9.211,9.211,0,0,0,27,13c-7.168,0-13,8.523-13,19,0,9.983,5.3,18.175,12,18.926V61H20A1,1,0,0,0,19,62ZM48,16a1,1,0,0,1,1-1c5.962,0,11,7.785,11,17a1,1,0,0,1-2,0c0-7.991-4.206-15-9-15A1,1,0,0,1,48,16Z" style="fill:#c4a2fc"/><path d="M51.641,21.232l-24-20a1,1,0,0,0-1.28,0l-24,20A1,1,0,0,0,3,23H7V45a1,1,0,0,0,1,1H46a1,1,0,0,0,1-1V23h4A1,1,0,0,0,51.641,21.232ZM33,44H21V31H33Zm12,0H35V30a1,1,0,0,0-1-1H20a1,1,0,0,0-1,1V44H9V23H45ZM5.763,21,27,3.3,48.239,21Z" style="fill:#151a6a"/></svg>