<svg id="visual" viewBox="0 0 1200 1000" width="1200" height="1000" xmlns="http://www.w3.org/2000/svg" xmlns:xlink="http://www.w3.org/1999/xlink" version="1.1"><path d="M0 251L22.2 252.7C44.3 254.3 88.7 257.7 133.2 286C177.7 314.3 222.3 367.7 266.8 381C311.3 394.3 355.7 367.7 400 326C444.3 284.3 488.7 227.7 533.2 236C577.7 244.3 622.3 317.7 666.8 334.3C711.3 351 755.7 311 800 316C844.3 321 888.7 371 933.2 397.7C977.7 424.3 1022.3 427.7 1066.8 414.3C1111.3 401 1155.7 371 1177.8 356L1200 341L1200 0L1177.8 0C1155.7 0 1111.3 0 1066.8 0C1022.3 0 977.7 0 933.2 0C888.7 0 844.3 0 800 0C755.7 0 711.3 0 666.8 0C622.3 0 577.7 0 533.2 0C488.7 0 444.3 0 400 0C355.7 0 311.3 0 266.8 0C222.3 0 177.7 0 133.2 0C88.7 0 44.3 0 22.2 0L0 0Z" fill="#fa71c9"></path><path d="M0 411L22.2 402.7C44.3 394.3 88.7 377.7 133.2 404.3C177.7 431 222.3 501 266.8 514.3C311.3 527.7 355.7 484.3 400 439.3C444.3 394.3 488.7 347.7 533.2 356C577.7 364.3 622.3 427.7 666.8 451C711.3 474.3 755.7 457.7 800 479.3C844.3 501 888.7 561 933.2 586C977.7 611 1022.3 601 1066.8 577.7C1111.3 554.3 1155.7 517.7 1177.8 499.3L1200 481L1200 339L1177.8 354C1155.7 369 1111.3 399 1066.8 412.3C1022.3 425.7 977.7 422.3 933.2 395.7C888.7 369 844.3 319 800 314C755.7 309 711.3 349 666.8 332.3C622.3 315.7 577.7 242.3 533.2 234C488.7 225.7 444.3 282.3 400 324C355.7 365.7 311.3 392.3 266.8 379C222.3 365.7 177.7 312.3 133.2 284C88.7 255.7 44.3 252.3 22.2 250.7L0 249Z" fill="#f74dbb"></path><path d="M0 581L22.2 591C44.3 601 88.7 621 133.2 644.3C177.7 667.7 222.3 694.3 266.8 689.3C311.3 684.3 355.7 647.7 400 599.3C444.3 551 488.7 491 533.2 516C577.7 541 622.3 651 666.8 671C711.3 691 755.7 621 800 611C844.3 601 888.7 651 933.2 674.3C977.7 697.7 1022.3 694.3 1066.8 687.7C1111.3 681 1155.7 671 1177.8 666L1200 661L1200 479L1177.8 497.3C1155.7 515.7 1111.3 552.3 1066.8 575.7C1022.3 599 977.7 609 933.2 584C888.7 559 844.3 499 800 477.3C755.7 455.7 711.3 472.3 666.8 449C622.3 425.7 577.7 362.3 533.2 354C488.7 345.7 444.3 392.3 400 437.3C355.7 482.3 311.3 525.7 266.8 512.3C222.3 499 177.7 429 133.2 402.3C88.7 375.7 44.3 392.3 22.2 400.7L0 409Z" fill="#f403ac"></path><path d="M0 861L22.2 864.3C44.3 867.7 88.7 874.3 133.2 882.7C177.7 891 222.3 901 266.8 906C311.3 911 355.7 911 400 907.7C444.3 904.3 488.7 897.7 533.2 897.7C577.7 897.7 622.3 904.3 666.8 894.3C711.3 884.3 755.7 857.7 800 846C844.3 834.3 888.7 837.7 933.2 837.7C977.7 837.7 1022.3 834.3 1066.8 842.7C1111.3 851 1155.7 871 1177.8 881L1200 891L1200 659L1177.8 664C1155.7 669 1111.3 679 1066.8 685.7C1022.3 692.3 977.7 695.7 933.2 672.3C888.7 649 844.3 599 800 609C755.7 619 711.3 689 666.8 669C622.3 649 577.7 539 533.2 514C488.7 489 444.3 549 400 597.3C355.7 645.7 311.3 682.3 266.8 687.3C222.3 692.3 177.7 665.7 133.2 642.3C88.7 619 44.3 599 22.2 589L0 579Z" fill="#d20495"></path><path d="M0 1001L22.2 1001C44.3 1001 88.7 1001 133.2 1001C177.7 1001 222.3 1001 266.8 1001C311.3 1001 355.7 1001 400 1001C444.3 1001 488.7 1001 533.2 1001C577.7 1001 622.3 1001 666.8 1001C711.3 1001 755.7 1001 800 1001C844.3 1001 888.7 1001 933.2 1001C977.7 1001 1022.3 1001 1066.8 1001C1111.3 1001 1155.7 1001 1177.8 1001L1200 1001L1200 889L1177.8 879C1155.7 869 1111.3 849 1066.8 840.7C1022.3 832.3 977.7 835.7 933.2 835.7C888.7 835.7 844.3 832.3 800 844C755.7 855.7 711.3 882.3 666.8 892.3C622.3 902.3 577.7 895.7 533.2 895.7C488.7 895.7 444.3 902.3 400 905.7C355.7 909 311.3 909 266.8 904C222.3 899 177.7 889 133.2 880.7C88.7 872.3 44.3 865.7 22.2 862.3L0 859Z" fill="#b2047f"></path></svg>